<svg width="30" height="30" viewBox="0 0 30 30" fill="none" xmlns="http://www.w3.org/2000/svg">
<g clip-path="url(#clip0_826_36)">
<path d="M25.5527 18.5867C25.1658 19.8282 24.5608 20.9669 23.7503 21.9693C22.9194 22.9999 21.9092 23.8461 20.7456 24.4935C19.582 25.1409 18.3263 25.5483 17.012 25.7068C15.6527 25.871 14.2912 25.7622 12.9615 25.3809C11.6317 24.9996 10.4195 24.3704 9.35662 23.5117C8.32887 22.6816 7.47986 21.6706 6.83615 20.505C6.63422 20.1407 6.45437 19.7642 6.29864 19.3791L8.40556 18.5287C8.59075 18.4549 8.60815 18.1999 8.43539 18.1009L3.76353 15.4304C3.63039 15.3551 3.45911 15.4236 3.41729 15.5695L1.91103 20.7361C1.85609 20.9277 2.04512 21.0995 2.22827 21.022L4.20275 20.2234C5.59496 23.6679 8.49772 26.453 12.3411 27.5551C18.8927 29.4337 25.7286 25.7119 27.7228 19.2213C27.7626 19.0935 27.69 18.9581 27.5613 18.9212L25.8455 18.4292C25.7197 18.3932 25.5909 18.4645 25.5527 18.5867ZM3.99753 12.1644L5.71333 12.6564C5.83916 12.6925 5.96795 12.6211 6.00607 12.499C6.393 11.2575 6.99806 10.1188 7.80852 9.11637C8.63945 8.08576 9.6504 7.23675 10.8132 6.59221C11.976 5.94768 13.2325 5.53738 14.5468 5.37885C15.9061 5.21465 17.2676 5.32342 18.5973 5.70472C19.9271 6.08602 21.1393 6.71525 22.2051 7.57481C23.2328 8.40492 24.0818 9.41588 24.7255 10.5815C24.9275 10.9458 25.1073 11.3223 25.263 11.7074L23.1561 12.5578C22.9709 12.6316 22.9535 12.8866 23.1263 12.9856L27.7981 15.656C27.9313 15.7314 28.1026 15.6629 28.1444 15.517L29.6486 10.3467C29.7035 10.1551 29.5145 9.98334 29.3314 10.0608L27.3569 10.8594C25.9638 7.4178 23.0611 4.63262 19.2177 3.53054C12.6633 1.6511 5.82938 5.37667 3.83599 11.8643C3.79623 11.9922 3.86884 12.1275 3.99753 12.1644Z" fill="white"/>
<path d="M17.8034 18.5104C17.6082 18.7057 17.2916 18.7057 17.0963 18.5104L12.1466 13.5607C11.9513 13.3654 11.9513 13.0488 12.1466 12.8536L12.8537 12.1464C13.0489 11.9512 13.3655 11.9512 13.5608 12.1464L18.5105 17.0962C18.7058 17.2915 18.7058 17.608 18.5105 17.8033L17.8034 18.5104Z" fill="white"/>
<path d="M12.1464 17.8033C11.9512 17.6081 11.9512 17.2915 12.1464 17.0962L17.0962 12.1465C17.2915 11.9512 17.608 11.9512 17.8033 12.1465L18.5104 12.8536C18.7057 13.0488 18.7057 13.3654 18.5104 13.5607L13.5607 18.5104C13.3654 18.7057 13.0488 18.7057 12.8536 18.5104L12.1464 17.8033Z" fill="white"/>
</g>
<defs>
<clipPath id="clip0_826_36">
<rect width="30" height="30" fill="white"/>
</clipPath>
</defs>
</svg>
