<svg width="30" height="30" viewBox="0 0 30 30" fill="none" xmlns="http://www.w3.org/2000/svg">
<g clip-path="url(#clip0_826_25)">
<path d="M25.0842 18.9644C24.6542 20.1916 24.0098 21.3085 23.1648 22.282C22.2984 23.283 21.2594 24.0934 20.0739 24.6998C18.8884 25.3062 17.6192 25.6695 16.3002 25.7821C14.936 25.8988 13.5791 25.7425 12.2635 25.3151C10.9479 24.8876 9.75834 24.2164 8.72609 23.3211C7.72794 22.4557 6.91474 21.4157 6.31209 20.2283C6.123 19.8572 5.9564 19.4746 5.8142 19.0843L7.94952 18.308C8.13717 18.2407 8.16346 17.9865 7.99427 17.8814L3.41845 15.0496C3.28802 14.9697 3.11445 15.0322 3.06756 15.1765L1.38191 20.2873C1.32032 20.4769 1.50324 20.6552 1.68898 20.5842L3.69013 19.8549C4.96128 23.3459 7.76507 26.2307 11.5677 27.4663C18.0496 29.5724 25.0113 26.0913 27.2308 19.6744C27.275 19.548 27.2072 19.4102 27.0799 19.3688L25.3823 18.8172C25.2578 18.7768 25.1266 18.8436 25.0842 18.9644ZM3.76628 11.7938L5.46388 12.3453C5.58837 12.3858 5.71957 12.3189 5.76193 12.1982C6.19195 10.971 6.83638 9.85409 7.68133 8.88055C8.54772 7.87957 9.58769 7.06637 10.7723 6.4628C11.9568 5.85923 13.2269 5.49304 14.546 5.38048C15.9102 5.26382 17.267 5.42003 18.5826 5.84751C19.8983 6.27498 21.0878 6.94614 22.1229 7.84237C23.121 8.70783 23.9342 9.74781 24.5369 10.9352C24.726 11.3063 24.8926 11.6889 25.0348 12.0792L22.8995 12.8555C22.7118 12.9228 22.6855 13.177 22.8547 13.282L27.4305 16.1139C27.561 16.1938 27.7345 16.1313 27.7814 15.987L29.4652 10.8724C29.5268 10.6828 29.3438 10.5045 29.1581 10.5756L27.1569 11.3048C25.8849 7.81663 23.0811 4.93185 19.2785 3.69631C12.7937 1.58927 5.83391 5.07407 3.61532 11.4882C3.57112 11.6146 3.63897 11.7524 3.76628 11.7938Z" fill="white"/>
</g>
<defs>
<clipPath id="clip0_826_25">
<rect width="30" height="30" fill="white"/>
</clipPath>
</defs>
</svg>
